<?xml version="1.0" encoding="UTF-8" standalone="no"?>
<svg
   viewBox="0 0 146.47301 42.867592"
   version="1.1"
   id="svg754"
   sodipodi:docname="logo.svg"
   inkscape:version="1.2.2 (b0a8486541, 2022-12-01)"
   inkscape:export-filename="logo.svg"
   inkscape:export-xdpi="96"
   inkscape:export-ydpi="96"
   width="146.47301"
   height="42.867592"
   xmlns:inkscape="http://www.inkscape.org/namespaces/inkscape"
   xmlns:sodipodi="http://sodipodi.sourceforge.net/DTD/sodipodi-0.dtd"
   xmlns="http://www.w3.org/2000/svg"
   xmlns:svg="http://www.w3.org/2000/svg">
  <defs
     id="defs718" />
  <sodipodi:namedview
     id="namedview716"
     pagecolor="#ffffff"
     bordercolor="#000000"
     borderopacity="0.25"
     inkscape:showpageshadow="2"
     inkscape:pageopacity="0.0"
     inkscape:pagecheckerboard="0"
     inkscape:deskcolor="#d1d1d1"
     showgrid="false"
     inkscape:zoom="8.5947996"
     inkscape:cx="107.79774"
     inkscape:cy="66.377347"
     inkscape:window-width="3840"
     inkscape:window-height="2065"
     inkscape:window-x="0"
     inkscape:window-y="0"
     inkscape:window-maximized="1"
     inkscape:current-layer="svg754" />
  <g
     id="g1291"
     transform="translate(-30.472378,-83.203708)">
    <path
       style="fill:#38bdf8;fill-opacity:1;stroke:none;stroke-width:0;stroke-dasharray:none"
       d="m 55.472378,126.0713 v 0 c 6.666656,0 10.833336,-3.33334 12.499996,-10 -2.49999,3.33333 -5.41667,4.58333 -8.75,3.75 -1.467689,-0.36657 -2.612246,-1.27244 -3.749843,-2.36866"
       id="path746"
       inkscape:export-filename="logo-plain.svg"
       inkscape:export-xdpi="96"
       inkscape:export-ydpi="96" />
    <path
       style="fill:#38bdf8;fill-opacity:1;stroke:none;stroke-width:0;stroke-dasharray:none"
       d="m 55.472225,104.68996 c 0.336512,0.32427 0.672416,0.66519 1.015894,1.01375 2.450925,2.48796 5.287965,5.36759 11.484255,5.36759 6.66666,0 10.83334,-3.33334 12.5,-10 -2.49999,3.33333 -5.41667,4.58333 -8.75,3.75 -1.90185,-0.475 -3.26111,-1.85556 -4.76574,-3.38241 -2.45092,-2.487957 -5.28797,-5.367589 -11.484256,-5.367589 v 0 0"
       id="path748" />
    <path
       style="fill:#38bdf8;fill-opacity:1;stroke:none;stroke-width:0;stroke-dasharray:none"
       d="m 55.472531,104.58505 c -0.336512,-0.32427 -0.672416,-0.6652 -1.015894,-1.01375 -2.450924,-2.48796 -5.287969,-5.367592 -11.484259,-5.367592 v 0 c -6.66666,0 -10.833335,3.333342 -12.5,10.000002 2.499997,-3.33333 5.41667,-4.58333 8.75,-3.75 1.90185,0.47592 3.261113,1.85555 4.765741,3.3824 2.450924,2.48796 5.287969,5.3676 11.484259,5.3676"
       id="path750" />
    <path
       style="fill:#38bdf8;fill-opacity:1;stroke:none;stroke-width:0;stroke-dasharray:none"
       d="m 55.472378,83.203708 c -6.66666,0 -10.833335,3.33334 -12.5,10 2.499997,-3.33333 5.41667,-4.583332 8.75,-3.75 1.467693,0.366566 2.61225,1.272438 3.749847,2.368656"
       id="path752" />
    <path
       style="stroke-width:0.261636"
       d="m 118.46688,104.78837 h 2.10355 v 13.63541 h -2.10355 v -1.40237 c -0.74043,1.03215 -1.88954,1.65563 -3.40886,1.65563 -2.64906,0 -4.85021,-2.24013 -4.85021,-5.12283 0,-2.90233 2.20115,-5.12283 4.85021,-5.12283 1.51932,0 2.66869,0.62321 3.40886,1.63601 z m -3.07789,11.88245 c 1.75296,0 3.07762,-1.30531 3.07762,-3.11661 0,-1.81131 -1.32466,-3.11661 -3.07762,-3.11661 -1.75296,0 -3.07762,1.30504 -3.07762,3.11661 0,1.81157 1.3244,3.11661 3.07762,3.11661 z"
       id="path1002" />
    <path
       style="stroke-width:0.261636"
       d="m 144.45125,111.37243 c 0,1.77258 5.23979,0.70118 5.23979,4.30495 0,1.94788 -1.69462,2.99966 -3.79844,2.99966 -1.94787,0 -3.35024,-0.87648 -3.97372,-2.27885 l 1.81157,-1.05204 c 0.3116,0.87648 1.09102,1.40237 2.16215,1.40237 0.93509,0 1.65564,-0.31135 1.65564,-1.09076 0,-1.7336 -5.23979,-0.75953 -5.23979,-4.24635 0,-1.83093 1.57767,-2.98003 3.56479,-2.98003 1.59703,0 2.92169,0.7399 3.60352,2.02558 l -1.77259,0.99343 c -0.35059,-0.75953 -1.03241,-1.11038 -1.83093,-1.11038 -0.75979,0 -1.42199,0.33123 -1.42199,1.03242 z"
       id="path1008" />
    <path
       style="stroke-width:0.261636"
       d="m 135.47138,111.37243 c 0,1.77258 5.23979,0.70118 5.23979,4.30495 0,1.94788 -1.69462,2.99966 -3.79817,2.99966 -1.94788,0 -3.35051,-0.87648 -3.97373,-2.27885 l 1.81157,-1.05204 c 0.31161,0.87648 1.09076,1.40237 2.16216,1.40237 0.93482,0 1.65563,-0.31135 1.65563,-1.09076 0,-1.7336 -5.23978,-0.75953 -5.23978,-4.24635 0,-1.83093 1.57766,-2.98003 3.56452,-2.98003 1.59729,0 2.92196,0.7399 3.60352,2.02558 l -1.77233,0.99343 c -0.35059,-0.75953 -1.03241,-1.11038 -1.83119,-1.11038 -0.75952,0 -1.42199,0.33123 -1.42199,1.03242 z"
       id="path1006" />
    <path
       style="stroke-width:0.261636"
       d="m 127.62152,118.67704 c -2.94131,0 -5.14219,-2.24013 -5.14219,-5.12283 0,-2.90233 2.20088,-5.12283 5.14219,-5.12283 1.90889,0 3.56479,0.99317 4.34394,2.51249 l -1.81157,1.05177 c -0.42856,-0.9152 -1.383,-1.4997 -2.55173,-1.4997 -1.71424,0 -3.01928,1.30505 -3.01928,3.05827 0,1.75322 1.30504,3.058 3.01928,3.058 1.16873,0 2.12317,-0.60386 2.59072,-1.4997 l 1.8113,1.03216 c -0.81787,1.53894 -2.47377,2.53237 -4.3824,2.53237 z"
       id="path1004" />
    <path
       style="stroke-width:0.261636"
       d="m 104.75349,108.43059 c 2.18178,0 3.74008,1.4806 3.74008,4.01271 v 5.97995 h -2.10355 v -5.76541 c 0,-1.48033 -0.85738,-2.25949 -2.18204,-2.25949 -1.38275,0 -2.47351,0.81814 -2.47351,2.80474 v 5.22069 h -2.10355 v -9.73966 h 2.10355 v 1.24669 c 0.64284,-1.01279 1.69462,-1.49996 3.01928,-1.49996 z"
       id="path1000" />
    <path
       style="stroke-width:0.261636"
       d="m 95.092323,118.42325 v -9.73913 h 2.10355 v 9.73966 z"
       id="path998" />
    <path
       style="stroke-width:0.261636"
       d="m 96.144093,107.22314 c -0.74043,0 -1.34402,-0.62348 -1.34402,-1.34429 a 1.3466403,1.3466403 0 0 1 1.34402,-1.34401 1.3466403,1.3466403 0 0 1 1.34403,1.34401 c 0,0.72081 -0.60386,1.34429 -1.34403,1.34429 z"
       id="path996" />
    <path
       style="stroke-width:0.261636"
       d="m 91.313253,108.68385 h 2.2205 l -3.058,9.73993 h -2.06483 l -2.02585,-6.56445 -2.04521,6.56445 h -2.064575 l -3.05826,-9.7394 h 2.22051 l 1.889535,6.72012 2.04521,-6.72012 h 2.00622 l 2.02585,6.72012 z"
       id="path994" />
    <path
       style="stroke-width:0.261636"
       d="M 174.84181,102.09626 V 87.87713 h 2.10382 v 14.21939 z"
       id="path992" />
    <path
       style="stroke-width:0.261636"
       d="m 170.30348,102.09626 v -9.73913 h 2.10355 v 9.73966 z"
       id="path990" />
    <path
       style="stroke-width:0.261636"
       d="m 171.35525,90.89615 c -0.74043,0 -1.34402,-0.62348 -1.34402,-1.34429 a 1.3466403,1.3466403 0 0 1 1.34402,-1.34402 1.3466403,1.3466403 0 0 1 1.34403,1.34402 c 0,0.72081 -0.60386,1.34429 -1.34403,1.34429 z"
       id="path988" />
    <path
       style="stroke-width:0.261636"
       d="m 165.74552,92.35713 h 2.10355 v 9.73966 h -2.10355 v -1.40237 c -0.74043,1.03215 -1.88954,1.65563 -3.40912,1.65563 -2.64881,0 -4.84996,-2.24013 -4.84996,-5.12283 0,-2.90233 2.20115,-5.12283 4.85022,-5.12283 1.51932,0 2.66869,0.62321 3.40886,1.63601 z m -3.07789,7.9867 c 1.75296,0 3.07789,-1.30531 3.07789,-3.11661 0,-1.81131 -1.32467,-3.11661 -3.07789,-3.11661 -1.75323,0 -3.07763,1.30504 -3.07763,3.11661 0,1.81157 1.32466,3.11661 3.07763,3.11661 z"
       id="path986" />
    <path
       style="stroke-width:0.261636"
       d="m 156.53801,94.38297 h -2.41516 v 4.67491 c 0,1.2467 0.81787,1.22708 2.41516,1.14911 v 1.88953 c -3.23329,0.38958 -4.51897,-0.50652 -4.51897,-3.03864 v -4.67491 h -1.79221 v -2.02584 h 1.79221 v -2.61636 l 2.10355,-0.62322 v 3.23958 h 2.41542 z"
       id="path2284" />
    <path
       d="m 98.5765,102.32299 q -0.974289,0 -1.759124,-0.424 -0.784849,-0.43302 -1.235906,-1.27199 -0.451056,-0.847989 -0.451056,-2.083893 v -5.935943 h 1.903463 v 5.701392 q 0,1.136671 0.550294,1.723054 0.550293,0.58637 1.542619,0.58637 0.64051,0 1.15471,-0.26161 0.52324,-0.26162 0.82995,-0.820932 0.30673,-0.568334 0.30673,-1.44339 v -5.484884 h 1.90347 v 9.526376 h -1.86738 v -2.36355 h 0.44203 q -0.46007,1.27199 -1.29905,1.91249 -0.82995,0.64051 -2.02075,0.64051 z"
       id="path1325"
       style="font-size:13.5386px;font-family:Inter;-inkscape-font-specification:'Inter, @opsz=32.0,wght=500';font-variation-settings:'opsz' 32, 'wght' 500;white-space:pre;fill:#38bdf8;stroke-width:0;stroke-opacity:0.268985;paint-order:stroke fill markers" />
    <path
       d="m 107.37216,88.691966 v 13.441574 h -1.90347 V 88.691966 Z"
       id="path1327"
       style="font-size:13.5386px;font-family:Inter;-inkscape-font-specification:'Inter, @opsz=32.0,wght=500';font-variation-settings:'opsz' 32, 'wght' 500;white-space:pre;fill:#38bdf8;stroke-width:0;stroke-opacity:0.268985;paint-order:stroke fill markers" />
    <path
       d="m 114.20121,92.607164 v 1.569687 h -5.52098 v -1.569687 z m -3.84304,-2.598104 h 1.90348 v 9.607569 q 0,0.523231 0.21651,0.739741 0.22553,0.20749 0.79386,0.20749 0.21652,0 0.47813,0 0.26162,0 0.45106,0 v 1.56968 q -0.23456,0 -0.56834,0 -0.32475,0 -0.63149,0 -1.34415,0 -1.99368,-0.55931 -0.64953,-0.56834 -0.64953,-1.714029 z"
       id="path1329"
       style="font-size:13.5386px;font-family:Inter;-inkscape-font-specification:'Inter, @opsz=32.0,wght=500';font-variation-settings:'opsz' 32, 'wght' 500;white-space:pre;fill:#38bdf8;stroke-width:0;stroke-opacity:0.268985;paint-order:stroke fill markers" />
    <path
       d="m 115.70775,102.13354 v -9.526376 h 1.90346 v 9.526376 z m 0.94721,-11.168233 q -0.50517,0 -0.85701,-0.333784 -0.3428,-0.342806 -0.3428,-0.829949 0,-0.496166 0.3428,-0.829951 0.35184,-0.342804 0.85701,-0.342804 0.5052,0 0.85703,0.342804 0.35182,0.333785 0.35182,0.829951 0,0.487143 -0.35182,0.829949 -0.35183,0.333784 -0.85703,0.333784 z"
       id="path1331"
       style="font-size:13.5386px;font-family:Inter;-inkscape-font-specification:'Inter, @opsz=32.0,wght=500';font-variation-settings:'opsz' 32, 'wght' 500;white-space:pre;fill:#38bdf8;stroke-width:0;stroke-opacity:0.268985;paint-order:stroke fill markers" />
    <path
       d="m 121.66173,88.691966 v 13.441574 h -1.90346 V 88.691966 Z"
       id="path1333"
       style="font-size:13.5386px;font-family:Inter;-inkscape-font-specification:'Inter, @opsz=32.0,wght=500';font-variation-settings:'opsz' 32, 'wght' 500;white-space:pre;fill:#38bdf8;stroke-width:0;stroke-opacity:0.268985;paint-order:stroke fill markers" />
    <path
       d="m 123.80877,102.13354 v -9.526376 h 1.90347 v 9.526376 z M 124.756,90.965307 q -0.50518,0 -0.85702,-0.333784 -0.34279,-0.342806 -0.34279,-0.829949 0,-0.496166 0.34279,-0.829951 0.35184,-0.342804 0.85702,-0.342804 0.50519,0 0.85701,0.342804 0.35183,0.333785 0.35183,0.829951 0,0.487143 -0.35183,0.829949 -0.35182,0.333784 -0.85701,0.333784 z"
       id="path1335"
       style="font-size:13.5386px;font-family:Inter;-inkscape-font-specification:'Inter, @opsz=32.0,wght=500';font-variation-settings:'opsz' 32, 'wght' 500;white-space:pre;fill:#38bdf8;stroke-width:0;stroke-opacity:0.268985;paint-order:stroke fill markers" />
    <path
       d="m 129.76276,96.648658 v 5.484882 h -1.90346 v -9.526376 h 1.86738 v 2.363552 h -0.44204 q 0.4691,-1.28101 1.29905,-1.912493 0.83897,-0.640504 2.02074,-0.640504 0.98331,0 1.75914,0.433018 0.78485,0.423995 1.2359,1.262966 0.45106,0.838971 0.45106,2.083895 v 5.935942 h -1.90348 v -5.701392 q 0,-1.14569 -0.55028,-1.723047 -0.54127,-0.586378 -1.5336,-0.586378 -0.64953,0 -1.17276,0.261615 -0.5142,0.261615 -0.82093,0.820929 -0.30672,0.559314 -0.30672,1.443391 z"
       id="path1337"
       style="font-size:13.5386px;font-family:Inter;-inkscape-font-specification:'Inter, @opsz=32.0,wght=500';font-variation-settings:'opsz' 32, 'wght' 500;white-space:pre;fill:#38bdf8;stroke-width:0;stroke-opacity:0.268985;paint-order:stroke fill markers" />
    <path
       d="m 142.26613,102.35005 q -1.41633,0 -2.43572,-0.6405 -1.01037,-0.64051 -1.56066,-1.759136 -0.54128,-1.12765 -0.54128,-2.562019 0,-1.461433 0.56834,-2.580061 0.56833,-1.127648 1.56968,-1.768153 1.00135,-0.649525 2.30041,-0.649525 1.01037,0 1.82228,0.360846 0.82093,0.360848 1.40731,1.028417 0.58637,0.658547 0.90211,1.569687 0.31575,0.91114 0.31575,2.020746 v 0.514208 h -8.02887 v -1.44339 h 7.02751 l -0.83897,0.442039 q 0,-0.884078 -0.31574,-1.533603 -0.31574,-0.658547 -0.90211,-1.010373 -0.57736,-0.360848 -1.37123,-0.360848 -0.78485,0 -1.3622,0.360848 -0.57735,0.351826 -0.90211,1.010373 -0.31576,0.649525 -0.31576,1.533603 v 0.820927 q 0,0.90212 0.31576,1.596751 0.31573,0.685611 0.91113,1.073523 0.60443,0.38791 1.46144,0.38791 0.62246,0 1.10057,-0.18944 0.47814,-0.19847 0.79387,-0.54127 0.31574,-0.342811 0.45106,-0.793871 h 1.8313 q -0.1714,0.920161 -0.76679,1.623811 -0.58638,0.69464 -1.47949,1.09157 -0.88407,0.39693 -1.95759,0.39693 z"
       id="path1339"
       style="font-size:13.5386px;font-family:Inter;-inkscape-font-specification:'Inter, @opsz=32.0,wght=500';font-variation-settings:'opsz' 32, 'wght' 500;white-space:pre;fill:#38bdf8;stroke-width:0;stroke-opacity:0.268985;paint-order:stroke fill markers" />
    <path
       d="m 79.313246,102.32299 v -9.526384 h 1.849345 v 2.011726 h -0.180424 q 0.270636,-0.721695 0.721695,-1.208839 0.460081,-0.496166 1.05548,-0.739738 0.595398,-0.252594 1.244924,-0.252594 1.109607,0 1.894451,0.640505 0.793864,0.631484 0.974288,1.560666 h -0.297699 q 0.198466,-0.631483 0.640505,-1.127649 0.451059,-0.496165 1.100585,-0.784843 0.649526,-0.288679 1.443391,-0.288679 0.893098,0 1.614793,0.387912 0.721695,0.387911 1.145691,1.154712 0.423996,0.75778 0.423996,1.903472 v 6.269733 h -1.912492 v -6.107352 q 0,-1.019394 -0.568335,-1.479475 -0.568335,-0.460081 -1.344158,-0.460081 -0.631483,0 -1.091564,0.270636 -0.460081,0.270635 -0.712674,0.739737 -0.252594,0.469102 -0.252594,1.082543 v 5.953992 h -1.876408 v -6.233648 q 0,-0.820929 -0.53225,-1.317094 -0.523229,-0.496166 -1.335136,-0.496166 -0.550293,0 -1.037437,0.261615 -0.478124,0.261614 -0.775823,0.775822 -0.288678,0.505187 -0.288678,1.262967 v 5.746504 z"
       id="path1087"
       style="font-size:18.4754px;font-family:Inter;-inkscape-font-specification:'Inter, @opsz=32.0,wght=500';font-variation-settings:'opsz' 32, 'wght' 500;fill:#38bdf8;stroke-width:0;stroke-opacity:0.268985;paint-order:stroke fill markers" />
  </g>
</svg>
